# xmcd CD database file
#
# Track frame offsets:
#	150
#	15090
#	28865
#	43872
#	56892
#	71345
#	88637
#	104325
#	119372
#	130905
#	143815
#
# Disc length: 2291 seconds
#
# Revision: 0
# Processed by: cddbd v1.5PL3 Copyright (c) Steve Scherf et al.
# Submitted via: CDex 1.50beta10
#
DISCID=9408f10b
DTITLE=Cyndi Thomson - I'll Be Seeing You
DYEAR=1900
DGENRE=Country
TTITLE0=My World
TTITLE1=I Always Liked That Best
TTITLE2=What I Really Meant to Say
TTITLE3=Things I Would Do
TTITLE4=If You Could Only See
TTITLE5=I'm Gone
TTITLE6=If Your Were Mine
TTITLE7=Hope You're Doing Fine
TTITLE8=There Goes The Boy
TTITLE9=But I Want To
TTITLE10=I'll Be Seeing You
EXTD=
EXTT0=
EXTT1=
EXTT2=
EXTT3=
EXTT4=
EXTT5=
EXTT6=
EXTT7=
EXTT8=
EXTT9=
EXTT10=
PLAYORDER=
